<svg width="28" height="28" viewBox="0 0 28 28" fill="none" xmlns="http://www.w3.org/2000/svg">
<path d="M17.5076 22.1647C17.7779 22.1653 18.0399 22.0705 18.248 21.897C18.3651 21.7993 18.462 21.6792 18.5329 21.5438C18.6039 21.4084 18.6476 21.2602 18.6616 21.1077C18.6756 20.9552 18.6595 20.8015 18.6144 20.6553C18.5692 20.5091 18.4958 20.3733 18.3984 20.2556L13.2156 14.0161L18.2133 7.76499C18.3094 7.64592 18.3811 7.50891 18.4244 7.36184C18.4678 7.21477 18.4817 7.06054 18.4656 6.90801C18.4495 6.75548 18.4036 6.60767 18.3305 6.47305C18.2574 6.33844 18.1586 6.21969 18.0398 6.12363C17.9201 6.01766 17.7799 5.93772 17.628 5.88884C17.4762 5.83996 17.3159 5.8232 17.1573 5.83959C16.9987 5.85599 16.8452 5.90519 16.7064 5.98412C16.5676 6.06305 16.4465 6.16999 16.3507 6.29824L10.763 13.2828C10.5929 13.491 10.4998 13.7523 10.4998 14.0219C10.4998 14.2916 10.5929 14.5529 10.763 14.7611L16.5474 21.7457C16.6634 21.8865 16.8109 21.9979 16.9777 22.0707C17.1445 22.1435 17.3261 22.1757 17.5076 22.1647Z" fill="white"/>
</svg>
