<svg width="28" height="28" viewBox="0 0 28 28" fill="none" xmlns="http://www.w3.org/2000/svg">
<path d="M11.6589 5.83527C11.3886 5.83474 11.1266 5.92947 10.9185 6.10301C10.8014 6.20074 10.7045 6.32076 10.6336 6.45619C10.5626 6.59163 10.5189 6.73983 10.5049 6.89229C10.4909 7.04476 10.507 7.19851 10.5521 7.34472C10.5973 7.49093 10.6707 7.62674 10.7681 7.74437L15.9509 13.9839L10.9532 20.235C10.8571 20.3541 10.7854 20.4911 10.7421 20.6382C10.6988 20.7852 10.6848 20.9395 10.7009 21.092C10.717 21.2445 10.7629 21.3923 10.836 21.5269C10.9091 21.6616 11.0079 21.7803 11.1267 21.8764C11.2464 21.9823 11.3866 22.0623 11.5385 22.1112C11.6903 22.16 11.8506 22.1768 12.0092 22.1604C12.1678 22.144 12.3213 22.0948 12.4601 22.0159C12.5989 21.937 12.72 21.83 12.8158 21.7018L18.4035 14.7172C18.5736 14.509 18.6667 14.2477 18.6667 13.9781C18.6667 13.7084 18.5736 13.4471 18.4035 13.2389L12.6191 6.25434C12.5031 6.11347 12.3556 6.00211 12.1888 5.9293C12.022 5.85649 11.8404 5.82427 11.6589 5.83527Z" fill="white"/>
</svg>
