<svg width="708" height="309" viewBox="0 0 708 309" fill="none" xmlns="http://www.w3.org/2000/svg">
	<g filter="url(#filter0_d_916_702)">
		<path d="M401.119 31.5283L422.127 9.00024L698.312 266.553L677.304 289.082L401.119 31.5283Z" fill="url(#paint0_linear_916_702)" />
		<path d="M387 171.677L408.008 149.149L532.873 265.589L511.864 288.118L387 171.677Z" fill="url(#paint1_linear_916_702)" />
		<path d="M225 81.6768L246.008 59.1487L380.928 184.966L359.919 207.494L225 81.6768Z" fill="url(#paint2_linear_916_702)" />
		<path d="M139 266.866L422.159 9.14945L442.11 31.07L158.951 288.786L139 266.866Z" fill="url(#paint3_linear_916_702)" />
		<path d="M139 266.866L422.159 9.14945L442.11 31.07L158.951 288.786L139 266.866Z" fill="url(#paint4_linear_916_702)" />
		<path d="M19 266.865L247.501 58.8956L267.452 80.8162L38.9509 288.786L19 266.865Z" fill="url(#paint5_linear_916_702)" />
		<path d="M279 265.581L406.927 149.149L426.878 171.069L298.951 287.502L279 265.581Z" fill="url(#paint6_linear_916_702)" />
	</g>
	<defs>
		<filter id="filter0_d_916_702" x="0" y="0" width="707.312" height="308.082" filterUnits="userSpaceOnUse" color-interpolation-filters="sRGB">
			<feFlood flood-opacity="0" result="BackgroundImageFix" />
			<feColorMatrix in="SourceAlpha" type="matrix" values="0 0 0 0 0 0 0 0 0 0 0 0 0 0 0 0 0 0 127 0" result="hardAlpha" />
			<feOffset dx="-5" dy="5" />
			<feGaussianBlur stdDeviation="7" />
			<feComposite in2="hardAlpha" operator="out" />
			<feColorMatrix type="matrix" values="0 0 0 0 0 0 0 0 0 0 0 0 0 0 0 0 0 0 0.3 0" />
			<feBlend mode="normal" in2="BackgroundImageFix" result="effect1_dropShadow_916_702" />
			<feBlend mode="normal" in="SourceGraphic" in2="effect1_dropShadow_916_702" result="shape" />
		</filter>
		<linearGradient id="paint0_linear_916_702" x1="696.748" y1="295.138" x2="557.549" y2="10.5372" gradientUnits="userSpaceOnUse">
			<stop stop-color="white" />
			<stop offset="1" stop-color="#0071B0" />
		</linearGradient>
		<linearGradient id="paint1_linear_916_702" x1="540.001" y1="287.999" x2="433.078" y2="164.574" gradientUnits="userSpaceOnUse">
			<stop offset="0.0384442" stop-color="white" />
			<stop offset="1" stop-color="#0071B0" />
		</linearGradient>
		<linearGradient id="paint2_linear_916_702" x1="372.499" y1="207.15" x2="275.807" y2="76.0632" gradientUnits="userSpaceOnUse">
			<stop stop-color="#7ED1FF" />
			<stop offset="0.46929" stop-color="#0071B0" />
			<stop offset="1" stop-color="#0071B0" />
		</linearGradient>
		<linearGradient id="paint3_linear_916_702" x1="148.846" y1="279.29" x2="433.076" y2="18.8768" gradientUnits="userSpaceOnUse">
			<stop />
			<stop offset="1" stop-opacity="0" />
		</linearGradient>
		<linearGradient id="paint4_linear_916_702" x1="264" y1="177" x2="366.944" y2="61.4502" gradientUnits="userSpaceOnUse">
			<stop stop-color="#0071B0" />
			<stop offset="0.999872" stop-color="#0071B0" />
		</linearGradient>
		<linearGradient id="paint5_linear_916_702" x1="29" y1="279.149" x2="234" y2="92.1489" gradientUnits="userSpaceOnUse">
			<stop stop-color="#166D9E" />
			<stop offset="1" stop-color="#0071B0" />
		</linearGradient>
		<linearGradient id="paint6_linear_916_702" x1="289.284" y1="277.606" x2="395.799" y2="185.997" gradientUnits="userSpaceOnUse">
			<stop stop-color="#166D9E" />
			<stop offset="1" stop-color="#0071B0" />
		</linearGradient>
	</defs>
</svg>
