<svg width="178" height="36" viewBox="0 0 178 36" fill="none" xmlns="http://www.w3.org/2000/svg">
<path d="M99.544 31L95.064 19.8H97.896L100.056 25.512C100.184 25.8427 100.291 26.1307 100.376 26.376C100.472 26.6213 100.552 26.8507 100.616 27.064C100.691 27.2773 100.755 27.496 100.808 27.72C100.872 27.9333 100.941 28.1787 101.016 28.456H100.52C100.605 28.0933 100.691 27.7733 100.776 27.496C100.861 27.208 100.957 26.9147 101.064 26.616C101.171 26.3067 101.304 25.9387 101.464 25.512L103.544 19.8H106.328L101.816 31H99.544ZM107.671 31V22.504H110.231V31H107.671ZM108.951 20.824C108.471 20.824 108.092 20.712 107.815 20.488C107.548 20.2533 107.415 19.9227 107.415 19.496C107.415 19.112 107.553 18.7973 107.831 18.552C108.108 18.3067 108.481 18.184 108.951 18.184C109.431 18.184 109.804 18.3013 110.071 18.536C110.337 18.76 110.471 19.08 110.471 19.496C110.471 19.8907 110.332 20.2107 110.055 20.456C109.788 20.7013 109.42 20.824 108.951 20.824ZM116.684 31.16C115.745 31.16 114.929 30.9733 114.236 30.6C113.543 30.216 113.004 29.6987 112.62 29.048C112.236 28.3867 112.044 27.6347 112.044 26.792C112.044 26.1413 112.151 25.544 112.364 25C112.577 24.456 112.876 23.9867 113.26 23.592C113.644 23.1867 114.097 22.8773 114.62 22.664C115.153 22.44 115.735 22.328 116.364 22.328C116.961 22.328 117.505 22.4347 117.996 22.648C118.497 22.8613 118.929 23.16 119.292 23.544C119.655 23.928 119.932 24.3813 120.124 24.904C120.316 25.4267 120.401 25.9973 120.38 26.616L120.364 27.304H113.596L113.228 25.864H118.284L118.012 26.168V25.848C117.991 25.5813 117.905 25.3467 117.756 25.144C117.617 24.9307 117.431 24.7653 117.196 24.648C116.961 24.5307 116.695 24.472 116.396 24.472C115.98 24.472 115.623 24.5573 115.324 24.728C115.036 24.888 114.817 25.128 114.668 25.448C114.519 25.7573 114.444 26.1413 114.444 26.6C114.444 27.0693 114.54 27.48 114.732 27.832C114.935 28.1733 115.223 28.44 115.596 28.632C115.98 28.824 116.433 28.92 116.956 28.92C117.319 28.92 117.639 28.8667 117.916 28.76C118.204 28.6533 118.513 28.472 118.844 28.216L120.044 29.912C119.713 30.2 119.361 30.4347 118.988 30.616C118.615 30.7973 118.231 30.9307 117.836 31.016C117.452 31.112 117.068 31.16 116.684 31.16ZM123.711 31L120.911 22.504H123.615L125.183 28.024L124.847 27.96L126.607 23.672H128.111L129.967 27.976L129.599 28.008L131.167 22.504H133.871L130.975 31H129.087L127.247 26.44L127.439 26.472L125.599 31H123.711ZM138.607 31L134.127 19.8H136.959L139.119 25.512C139.247 25.8427 139.353 26.1307 139.439 26.376C139.535 26.6213 139.615 26.8507 139.679 27.064C139.753 27.2773 139.817 27.496 139.871 27.72C139.935 27.9333 140.004 28.1787 140.079 28.456H139.583C139.668 28.0933 139.753 27.7733 139.839 27.496C139.924 27.208 140.02 26.9147 140.127 26.616C140.233 26.3067 140.367 25.9387 140.527 25.512L142.607 19.8H145.391L140.879 31H138.607ZM146.733 31V22.504H149.293V31H146.733ZM148.013 20.824C147.533 20.824 147.154 20.712 146.877 20.488C146.61 20.2533 146.477 19.9227 146.477 19.496C146.477 19.112 146.616 18.7973 146.893 18.552C147.17 18.3067 147.544 18.184 148.013 18.184C148.493 18.184 148.866 18.3013 149.133 18.536C149.4 18.76 149.533 19.08 149.533 19.496C149.533 19.8907 149.394 20.2107 149.117 20.456C148.85 20.7013 148.482 20.824 148.013 20.824ZM151.715 31V19.16H154.275V31H151.715ZM156.574 31V19.16H159.134V31H156.574ZM164.397 31.144C163.682 31.144 163.042 30.9573 162.477 30.584C161.922 30.2 161.48 29.6773 161.149 29.016C160.818 28.344 160.653 27.5867 160.653 26.744C160.653 25.88 160.818 25.1173 161.149 24.456C161.48 23.7947 161.933 23.2773 162.509 22.904C163.085 22.52 163.741 22.328 164.477 22.328C164.882 22.328 165.25 22.3867 165.581 22.504C165.922 22.6213 166.221 22.7867 166.477 23C166.733 23.2027 166.952 23.4427 167.133 23.72C167.314 23.9867 167.448 24.2747 167.533 24.584L167.005 24.52V22.504H169.549V31H166.957V28.952L167.533 28.936C167.448 29.2347 167.309 29.5173 167.117 29.784C166.925 30.0507 166.69 30.2853 166.413 30.488C166.136 30.6907 165.826 30.8507 165.485 30.968C165.144 31.0853 164.781 31.144 164.397 31.144ZM165.101 28.984C165.496 28.984 165.837 28.8933 166.125 28.712C166.413 28.5307 166.637 28.2747 166.797 27.944C166.957 27.6027 167.037 27.2027 167.037 26.744C167.037 26.2853 166.957 25.8907 166.797 25.56C166.637 25.2187 166.413 24.9573 166.125 24.776C165.837 24.584 165.496 24.488 165.101 24.488C164.717 24.488 164.381 24.584 164.093 24.776C163.816 24.9573 163.597 25.2187 163.437 25.56C163.277 25.8907 163.197 26.2853 163.197 26.744C163.197 27.2027 163.277 27.6027 163.437 27.944C163.597 28.2747 163.816 28.5307 164.093 28.712C164.381 28.8933 164.717 28.984 165.101 28.984Z" fill="white"/>
<path d="M47.8135 2.82166L50.4422 -7.65444e-05L85.0002 32.2595L82.3715 35.0812L47.8135 2.82166Z" fill="url(#paint0_linear_1003_71)"/>
<path d="M46.0469 20.3748L48.6756 17.553L64.2994 32.1377L61.6707 34.9594L46.0469 20.3748Z" fill="url(#paint1_linear_1003_71)"/>
<path d="M25.7764 9.10327L28.4051 6.28154L45.2871 22.0407L42.6584 24.8624L25.7764 9.10327Z" fill="url(#paint2_linear_1003_71)"/>
<path d="M15.0156 32.2976L50.4463 0.0176132L52.9427 2.76325L17.512 35.0432L15.0156 32.2976Z" fill="url(#paint3_linear_1003_71)"/>
<path d="M15.0156 32.2976L50.4463 0.0176132L52.9427 2.76325L17.512 35.0432L15.0156 32.2976Z" fill="url(#paint4_linear_1003_71)"/>
<path d="M0 32.2976L28.5916 6.24858L31.088 8.99422L2.49639 35.0432L0 32.2976Z" fill="url(#paint5_linear_1003_71)"/>
<path d="M32.5332 32.1367L48.5403 17.5531L51.0367 20.2987L35.0296 34.8824L32.5332 32.1367Z" fill="url(#paint6_linear_1003_71)"/>
<defs>
<linearGradient id="paint0_linear_1003_71" x1="84.8045" y1="35.8399" x2="67.3584" y2="0.206452" gradientUnits="userSpaceOnUse">
<stop stop-color="#062E9F"/>
<stop offset="1" stop-color="white"/>
</linearGradient>
<linearGradient id="paint1_linear_1003_71" x1="65.1913" y1="34.9446" x2="51.797" y2="19.4986" gradientUnits="userSpaceOnUse">
<stop stop-color="#3B92C2" stop-opacity="0"/>
<stop offset="1" stop-color="white"/>
</linearGradient>
<linearGradient id="paint2_linear_1003_71" x1="44.2324" y1="24.8192" x2="32.1178" y2="8.41193" gradientUnits="userSpaceOnUse">
<stop stop-color="white" stop-opacity="0"/>
<stop offset="0.536458" stop-color="white"/>
</linearGradient>
<linearGradient id="paint3_linear_1003_71" x1="16.2476" y1="33.8538" x2="51.8454" y2="1.27209" gradientUnits="userSpaceOnUse">
<stop/>
<stop offset="1" stop-opacity="0"/>
</linearGradient>
<linearGradient id="paint4_linear_1003_71" x1="30.6564" y1="21.0416" x2="43.5521" y2="6.58153" gradientUnits="userSpaceOnUse">
<stop stop-color="white"/>
<stop offset="0.999872" stop-color="white"/>
</linearGradient>
<linearGradient id="paint5_linear_1003_71" x1="1.25127" y1="33.8362" x2="26.9259" y2="10.4397" gradientUnits="userSpaceOnUse">
<stop stop-color="white"/>
<stop offset="1" stop-color="white"/>
</linearGradient>
<linearGradient id="paint6_linear_1003_71" x1="33.82" y1="33.6429" x2="47.1595" y2="22.1819" gradientUnits="userSpaceOnUse">
<stop stop-color="white"/>
<stop offset="1" stop-color="white"/>
</linearGradient>
</defs>
</svg>
