<svg width="190" height="36" viewBox="0 0 190 36" fill="none" xmlns="http://www.w3.org/2000/svg">
<path d="M100.844 15.7969L94.9534 27H93.1252L87.2424 15.7969H89.0627L94.0393 25.2734L99.0159 15.7969H100.844ZM103.422 27H101.836V18.2031H103.422V27ZM114.914 27H105.727V18.1719H114.914V19.7812H107.344V25.3828H114.914V27ZM113.891 23.3516H108.102V21.7344H113.891V23.3516ZM127.899 23.7812C127.899 24.2292 127.813 24.6484 127.641 25.0391C127.474 25.4297 127.245 25.7708 126.953 26.0625C126.662 26.349 126.318 26.5781 125.922 26.75C125.531 26.9167 125.112 27 124.664 27C124.19 27 123.748 26.901 123.336 26.7031C122.93 26.5 122.578 26.2266 122.281 25.8828C121.985 26.2266 121.623 26.5 121.196 26.7031C120.768 26.901 120.31 27 119.821 27C119.383 27 118.969 26.9167 118.578 26.75C118.188 26.5781 117.844 26.349 117.547 26.0625C117.255 25.7708 117.024 25.4297 116.852 25.0391C116.685 24.6484 116.602 24.2292 116.602 23.7812V18.2031H118.203V23.7812C118.203 24.0104 118.245 24.224 118.328 24.4219C118.412 24.6198 118.526 24.7917 118.672 24.9375C118.818 25.0781 118.99 25.1901 119.188 25.2734C119.386 25.3568 119.597 25.3984 119.821 25.3984C120.05 25.3984 120.263 25.3568 120.461 25.2734C120.659 25.1901 120.831 25.0781 120.977 24.9375C121.128 24.7917 121.245 24.6198 121.328 24.4219C121.412 24.224 121.453 24.0104 121.453 23.7812V18.2031H123.071V23.5938C123.071 23.8438 123.112 24.0807 123.196 24.3047C123.279 24.5234 123.391 24.7135 123.531 24.875C123.677 25.0365 123.847 25.1641 124.039 25.2578C124.232 25.3516 124.44 25.3984 124.664 25.3984C124.893 25.3984 125.107 25.3568 125.305 25.2734C125.503 25.1901 125.675 25.0781 125.821 24.9375C125.972 24.7917 126.089 24.6198 126.172 24.4219C126.255 24.224 126.297 24.0104 126.297 23.7812V18.2031H127.899V23.7812ZM142.797 15.7969L136.906 27H135.078L129.196 15.7969H131.016L135.992 25.2734L140.969 15.7969H142.797ZM145.375 27H143.789V18.2031H145.375V27ZM156.102 27H147.68V18.2031H149.281V25.3984H156.102V27ZM165.883 27H157.461V18.2031H159.063V25.3984H165.883V27ZM177.313 27H175.711V24.5859H169.547V22.9531H175.711V19.7812H171.547C171.156 19.7812 170.789 19.8568 170.446 20.0078C170.102 20.1536 169.802 20.3542 169.547 20.6094C169.292 20.8646 169.089 21.1641 168.938 21.5078C168.792 21.8464 168.719 22.2109 168.719 22.6016V27H167.102V22.6016C167.102 21.987 167.219 21.4115 167.453 20.875C167.688 20.3385 168.005 19.8698 168.406 19.4688C168.808 19.0677 169.279 18.7526 169.821 18.5234C170.362 18.2891 170.938 18.1719 171.547 18.1719H177.313V27Z" fill="white"/>
<path d="M47.8132 2.82166L50.4419 -7.65444e-05L85 32.2595L82.3713 35.0812L47.8132 2.82166Z" fill="url(#paint0_linear_1102_76)"/>
<path d="M46.0466 20.3748L48.6753 17.553L64.2992 32.1377L61.6705 34.9594L46.0466 20.3748Z" fill="url(#paint1_linear_1102_76)"/>
<path d="M25.7761 9.10327L28.4048 6.28154L45.2868 22.0407L42.6581 24.8624L25.7761 9.10327Z" fill="url(#paint2_linear_1102_76)"/>
<path d="M15.0154 32.2976L50.4461 0.0176132L52.9425 2.76325L17.5118 35.0432L15.0154 32.2976Z" fill="url(#paint3_linear_1102_76)"/>
<path d="M15.0154 32.2976L50.4461 0.0176132L52.9425 2.76325L17.5118 35.0432L15.0154 32.2976Z" fill="url(#paint4_linear_1102_76)"/>
<path d="M0 32.2976L28.5916 6.24858L31.088 8.99422L2.49639 35.0432L0 32.2976Z" fill="url(#paint5_linear_1102_76)"/>
<path d="M32.533 32.1367L48.54 17.5531L51.0364 20.2987L35.0294 34.8824L32.533 32.1367Z" fill="url(#paint6_linear_1102_76)"/>
<defs>
<linearGradient id="paint0_linear_1102_76" x1="84.8043" y1="35.8399" x2="67.3581" y2="0.206452" gradientUnits="userSpaceOnUse">
<stop stop-color="#062E9F"/>
<stop offset="1" stop-color="white"/>
</linearGradient>
<linearGradient id="paint1_linear_1102_76" x1="65.1911" y1="34.9446" x2="51.7967" y2="19.4986" gradientUnits="userSpaceOnUse">
<stop stop-color="#3B92C2" stop-opacity="0"/>
<stop offset="1" stop-color="white"/>
</linearGradient>
<linearGradient id="paint2_linear_1102_76" x1="44.2321" y1="24.8192" x2="32.1175" y2="8.41193" gradientUnits="userSpaceOnUse">
<stop stop-color="white" stop-opacity="0"/>
<stop offset="0.536458" stop-color="white"/>
</linearGradient>
<linearGradient id="paint3_linear_1102_76" x1="16.2473" y1="33.8538" x2="51.8451" y2="1.27209" gradientUnits="userSpaceOnUse">
<stop/>
<stop offset="1" stop-opacity="0"/>
</linearGradient>
<linearGradient id="paint4_linear_1102_76" x1="30.6562" y1="21.0416" x2="43.5519" y2="6.58153" gradientUnits="userSpaceOnUse">
<stop stop-color="white"/>
<stop offset="0.999872" stop-color="white"/>
</linearGradient>
<linearGradient id="paint5_linear_1102_76" x1="1.25127" y1="33.8362" x2="26.9259" y2="10.4397" gradientUnits="userSpaceOnUse">
<stop stop-color="white"/>
<stop offset="1" stop-color="white"/>
</linearGradient>
<linearGradient id="paint6_linear_1102_76" x1="33.8198" y1="33.6429" x2="47.1592" y2="22.1819" gradientUnits="userSpaceOnUse">
<stop stop-color="white"/>
<stop offset="1" stop-color="white"/>
</linearGradient>
</defs>
</svg>
