<svg width="190" height="36" viewBox="0 0 190 36" fill="none" xmlns="http://www.w3.org/2000/svg">
<path d="M101.844 11.7969L95.9531 23H94.125L88.2422 11.7969H90.0625L95.0391 21.2734L100.016 11.7969H101.844ZM104.422 23H102.836V14.2031H104.422V23ZM115.914 23H106.727V14.1719H115.914V15.7812H108.344V21.3828H115.914V23ZM114.891 19.3516H109.102V17.7344H114.891V19.3516ZM128.898 19.7812C128.898 20.2292 128.812 20.6484 128.641 21.0391C128.474 21.4297 128.245 21.7708 127.953 22.0625C127.661 22.349 127.318 22.5781 126.922 22.75C126.531 22.9167 126.112 23 125.664 23C125.19 23 124.747 22.901 124.336 22.7031C123.93 22.5 123.578 22.2266 123.281 21.8828C122.984 22.2266 122.622 22.5 122.195 22.7031C121.768 22.901 121.31 23 120.82 23C120.383 23 119.969 22.9167 119.578 22.75C119.188 22.5781 118.844 22.349 118.547 22.0625C118.255 21.7708 118.023 21.4297 117.852 21.0391C117.685 20.6484 117.602 20.2292 117.602 19.7812V14.2031H119.203V19.7812C119.203 20.0104 119.245 20.224 119.328 20.4219C119.411 20.6198 119.526 20.7917 119.672 20.9375C119.818 21.0781 119.99 21.1901 120.188 21.2734C120.385 21.3568 120.596 21.3984 120.82 21.3984C121.049 21.3984 121.263 21.3568 121.461 21.2734C121.659 21.1901 121.831 21.0781 121.977 20.9375C122.128 20.7917 122.245 20.6198 122.328 20.4219C122.411 20.224 122.453 20.0104 122.453 19.7812V14.2031H124.07V19.5938C124.07 19.8438 124.112 20.0807 124.195 20.3047C124.279 20.5234 124.391 20.7135 124.531 20.875C124.677 21.0365 124.846 21.1641 125.039 21.2578C125.232 21.3516 125.44 21.3984 125.664 21.3984C125.893 21.3984 126.107 21.3568 126.305 21.2734C126.503 21.1901 126.674 21.0781 126.82 20.9375C126.971 20.7917 127.089 20.6198 127.172 20.4219C127.255 20.224 127.297 20.0104 127.297 19.7812V14.2031H128.898V19.7812ZM143.797 11.7969L137.906 23H136.078L130.195 11.7969H132.016L136.992 21.2734L141.969 11.7969H143.797ZM146.375 23H144.789V14.2031H146.375V23ZM157.102 23H148.68V14.2031H150.281V21.3984H157.102V23ZM166.883 23H158.461V14.2031H160.062V21.3984H166.883V23ZM178.312 23H176.711V20.5859H170.547V18.9531H176.711V15.7812H172.547C172.156 15.7812 171.789 15.8568 171.445 16.0078C171.102 16.1536 170.802 16.3542 170.547 16.6094C170.292 16.8646 170.089 17.1641 169.938 17.5078C169.792 17.8464 169.719 18.2109 169.719 18.6016V23H168.102V18.6016C168.102 17.987 168.219 17.4115 168.453 16.875C168.688 16.3385 169.005 15.8698 169.406 15.4688C169.807 15.0677 170.279 14.7526 170.82 14.5234C171.362 14.2891 171.938 14.1719 172.547 14.1719H178.312V23Z" fill="#1B1C57"/>
<path d="M47.8132 2.82178L50.4419 4.55259e-05L85 32.2596L82.3713 35.0813L47.8132 2.82178Z" fill="url(#paint0_linear_1102_74)"/>
<path d="M46.0466 20.3745L48.6753 17.5528L64.2992 32.1375L61.6705 34.9592L46.0466 20.3745Z" fill="url(#paint1_linear_1102_74)"/>
<path d="M25.7761 9.10303L28.4048 6.2813L45.2868 22.0405L42.6581 24.8622L25.7761 9.10303Z" fill="url(#paint2_linear_1102_74)"/>
<path d="M15.0154 32.2974L50.4461 0.0173691L52.9425 2.76301L17.5118 35.043L15.0154 32.2974Z" fill="url(#paint3_linear_1102_74)"/>
<path d="M15.0154 32.2974L50.4461 0.0173691L52.9425 2.76301L17.5118 35.043L15.0154 32.2974Z" fill="url(#paint4_linear_1102_74)"/>
<path d="M0 32.2974L28.5916 6.24834L31.088 8.99397L2.49639 35.043L0 32.2974Z" fill="url(#paint5_linear_1102_74)"/>
<path d="M32.533 32.1367L48.54 17.5531L51.0364 20.2987L35.0294 34.8824L32.533 32.1367Z" fill="url(#paint6_linear_1102_74)"/>
<defs>
<linearGradient id="paint0_linear_1102_74" x1="84.8043" y1="35.84" x2="67.3581" y2="0.206574" gradientUnits="userSpaceOnUse">
<stop stop-color="white"/>
<stop offset="1" stop-color="#0071B0"/>
</linearGradient>
<linearGradient id="paint1_linear_1102_74" x1="65.1911" y1="34.9444" x2="51.7967" y2="19.4983" gradientUnits="userSpaceOnUse">
<stop offset="0.0384442" stop-color="white"/>
<stop offset="1" stop-color="#0071B0"/>
</linearGradient>
<linearGradient id="paint2_linear_1102_74" x1="44.2321" y1="24.819" x2="32.1175" y2="8.41169" gradientUnits="userSpaceOnUse">
<stop stop-color="#7ED1FF"/>
<stop offset="0.46929" stop-color="#0071B0"/>
<stop offset="1" stop-color="#0071B0"/>
</linearGradient>
<linearGradient id="paint3_linear_1102_74" x1="16.2473" y1="33.8535" x2="51.8451" y2="1.27185" gradientUnits="userSpaceOnUse">
<stop/>
<stop offset="1" stop-opacity="0"/>
</linearGradient>
<linearGradient id="paint4_linear_1102_74" x1="30.6562" y1="21.0413" x2="43.5519" y2="6.58129" gradientUnits="userSpaceOnUse">
<stop stop-color="#0071B0"/>
<stop offset="0.999872" stop-color="#0071B0"/>
</linearGradient>
<linearGradient id="paint5_linear_1102_74" x1="1.25127" y1="33.8359" x2="26.9259" y2="10.4395" gradientUnits="userSpaceOnUse">
<stop stop-color="#166D9E"/>
<stop offset="1" stop-color="#0071B0"/>
</linearGradient>
<linearGradient id="paint6_linear_1102_74" x1="33.8198" y1="33.6429" x2="47.1592" y2="22.1819" gradientUnits="userSpaceOnUse">
<stop stop-color="#166D9E"/>
<stop offset="1" stop-color="#0071B0"/>
</linearGradient>
</defs>
</svg>
