<svg width="33" height="32" viewBox="0 0 33 32" fill="none" xmlns="http://www.w3.org/2000/svg">
<path d="M27.0393 15.9556H5.96115C5.13106 15.9556 4.45557 16.6311 4.45557 17.4611C4.45557 18.2912 5.13106 18.9667 5.96115 18.9667H27.0393C27.8694 18.9667 28.5449 18.2912 28.5449 17.4611C28.5449 16.6311 27.8694 15.9556 27.0393 15.9556Z" fill="white"/>
<path d="M27.178 17.9819C26.906 17.9056 26.633 18.0602 26.5577 18.3272L26.5186 18.4647H6.48325L6.44312 18.3272C6.36784 18.0602 6.09283 17.9076 5.82282 17.9819C5.55581 18.0581 5.40224 18.3362 5.47855 18.6022L6.86167 23.4441C7.29024 24.9447 8.67942 25.9926 10.2392 25.9926H22.7606C24.3214 25.9926 25.7095 24.9447 26.1382 23.4441L27.5213 18.6022C27.5986 18.3362 27.444 18.0581 27.178 17.9819ZM10.2402 23.9851C9.57172 23.9851 8.97551 23.5364 8.79281 22.893L8.14141 20.6106C8.06515 20.3436 8.2197 20.0665 8.48567 19.9903C8.75466 19.914 9.0307 20.0695 9.10597 20.3356L9.75738 22.618C9.81962 22.8318 10.0173 22.9824 10.2401 22.9824C10.5172 22.9824 10.742 23.2072 10.742 23.4843C10.7421 23.7613 10.5172 23.9851 10.2402 23.9851Z" fill="white"/>
<path d="M11.2037 25.0409C10.9558 24.9194 10.6556 25.0168 10.5301 25.2657L9.52643 27.2732C9.40297 27.5211 9.50333 27.8222 9.75128 27.9467C9.82454 27.9828 9.90085 27.9999 9.97613 27.9999C10.1598 27.9999 10.3365 27.8985 10.4248 27.7219L11.4285 25.7144C11.552 25.4664 11.4516 25.1653 11.2037 25.0409Z" fill="white"/>
<path d="M23.4739 27.2745L22.4702 25.2671C22.3458 25.0181 22.0446 24.9188 21.7967 25.0422C21.5488 25.1667 21.4484 25.4678 21.5718 25.7157L22.5755 27.7232C22.6639 27.8988 22.8405 28.0002 23.0242 28.0002C23.0995 28.0002 23.1758 27.9832 23.2491 27.9481C23.497 27.8236 23.5974 27.5224 23.4739 27.2745Z" fill="white"/>
<path d="M24.6152 4C24.1033 4 23.6216 4.19973 23.2592 4.5621L21.6663 6.15501C21.4706 6.35073 21.4706 6.66893 21.6663 6.86465C21.8621 7.06038 22.1802 7.06038 22.376 6.86465L23.9688 5.27274C24.1405 5.10011 24.3703 5.00474 24.6202 5.00474C25.1241 5.00474 25.5336 5.41426 25.5336 5.91811V16.4572C25.5336 16.7342 25.7585 16.9591 26.0355 16.9591C26.3125 16.9591 26.5374 16.7342 26.5383 16.4562V5.91713C26.5384 4.86021 25.6792 4 24.6152 4Z" fill="white"/>
<path d="M22.878 6.65706L21.8743 5.65335C21.7599 5.53892 21.6003 5.48571 21.4377 5.51281L18.9284 5.92435C18.7438 5.95447 18.5922 6.08493 18.533 6.26161C18.4737 6.43828 18.5189 6.63499 18.6494 6.76847L21.6606 9.86997C21.756 9.96934 21.8874 10.0226 22.0199 10.0226C22.0671 10.0226 22.1153 10.0155 22.1624 10.0015C22.3411 9.9493 22.4766 9.80175 22.5127 9.61906L23.0146 7.10977C23.0477 6.94613 22.9965 6.77647 22.878 6.65706Z" fill="white"/>
<path d="M16.3528 10.0804C16.1571 9.88466 15.8389 9.88466 15.6432 10.0804L14.6395 11.0841C14.4437 11.2798 14.4437 11.598 14.6395 11.7937C14.7379 11.8911 14.8663 11.9403 14.9948 11.9403C15.1233 11.9403 15.2517 11.8911 15.3491 11.7937L16.3528 10.79C16.5486 10.5943 16.5486 10.2761 16.3528 10.0804Z" fill="white"/>
<path d="M18.3601 12.0882C18.1644 11.8925 17.8462 11.8925 17.6505 12.0882L16.6468 13.0919C16.4511 13.2876 16.4511 13.6058 16.6468 13.8016C16.7452 13.8989 16.8736 13.9481 17.0021 13.9481C17.1306 13.9481 17.259 13.8989 17.3564 13.8016L18.3601 12.7978C18.5559 12.6021 18.5559 12.2839 18.3601 12.0882Z" fill="white"/>
<path d="M19.3641 9.07697C19.1683 8.88124 18.8501 8.88124 18.6544 9.07697L17.6507 10.0807C17.455 10.2764 17.455 10.5946 17.6507 10.7903C17.7491 10.8877 17.8775 10.9369 18.006 10.9369C18.1345 10.9369 18.263 10.8877 18.3603 10.7903L19.3641 9.78662C19.5598 9.59089 19.5598 9.2727 19.3641 9.07697Z" fill="white"/>
</svg>
